<?xml version="1.0" encoding="utf-8"?>
<!-- Generator: Adobe Illustrator 16.0.0, SVG Export Plug-In . SVG Version: 6.00 Build 0)  -->
<!DOCTYPE svg PUBLIC "-//W3C//DTD SVG 1.1//EN" "http://www.w3.org/Graphics/SVG/1.1/DTD/svg11.dtd">
<svg version="1.1" id="Layer_1" xmlns="http://www.w3.org/2000/svg" xmlns:xlink="http://www.w3.org/1999/xlink" x="0px" y="0px"
	 width="1200px" height="500px" viewBox="-200 150 1200 500" enable-background="new -200 150 1200 500" xml:space="preserve">
<g>
	<g>
		<path d="M-16.524,241.438c5.836,9.52,16.573,11.141,23.854,3.719C-0.727,243.902-8.291,242.724-16.524,241.438z M28.376,245.42
			c9.187,7.001,18.473,5.323,24.84-4.564C44.26,242.51,36.872,243.853,28.376,245.42z M-20.579,253.352
			c0.7,3.966,0.882,6.556,1.643,8.939c5.632,17.593,20.018,27.62,33.681,38.063c1.605,1.217,6.468,0.12,8.48-1.516
			c8.999-7.442,18.44-14.688,25.865-23.574c4.526-5.411,5.654-13.647,8.972-22.319C30.441,262.117,5.726,262.149-20.579,253.352z
			 M78.734,281.208c10.304-11.354,20.121-22.196,29.958-33.033c2.976-3.297,6.239-7.28-0.689-9.011
			c-7.474-1.87-15.317-2.274-22.774-3.283c-2.097,18.211-7.233,33.581-19.693,45.504c-15.552,14.877-31.452,29.422-47.704,44.578
			c-27.642-26.989-63.063-46.31-67.455-90.291c-9.003,1.359-17.712,2.665-26.422,3.967c-0.364,0.953-0.76,1.887-1.146,2.839
			c11.192,12.813,22.368,25.631,33.811,38.746c-12.144,6.099-23.743,11.9-36.485,18.283c2.766,2.008,3.819,2.963,5.039,3.63
			c28.755,15.831,57.429,31.786,86.393,47.211c3.124,1.656,8.639,1.573,11.834-0.072c22.914-11.81,45.553-24.203,68.241-36.488
			c7.597-4.125,15.07-8.466,24.695-13.893C102.626,293.068,90.99,287.287,78.734,281.208z M73.032,204.524
			c-7.736-1.496-11.497-5.252-12.899-12.812c-1.6-8.6-3.879-17.103-6.239-25.53c-0.742-2.624-2.203-6.221-4.285-7.072
			c-12.957-5.308-25.774-11.208-40.614-8.02c-25.37,5.447-26.547,6.47-31.062,32.415c-1.941,11.088-5.446,20.819-19.04,22.336
			c-4.885,0.547-9.677,2.362-14.385,3.966c-3.665,1.254-7.159,3.084-11.08,4.809c32.628,34.622,130.427,34.041,172.156-1.484
			C93.869,209.97,83.576,206.563,73.032,204.524z M418.036,404.606c-12.219-7.547-19.814-5.188-36.913,11.775
			c-0.049-6.472,2.558-14.894-6.398-15.882c-12.021-1.359-24.273-1.097-36.416-0.824c-5.73,0.134-7.142,3.916-6.612,9.86
			c2.075,22.709,3.862,45.494,4.971,68.29c1.187,24.261,1.187,48.58,2.279,72.836c1.037,22.972,1.353,22.95,23.533,27.204
			c0.579,0.112,1.146,0.305,1.723,0.347c7.458,0.867,11.032-2.112,11.139-9.646c0.262-19.056,0.791-38.127,0.491-57.183
			c-0.421-26.455,5.27-51.722,13.878-76.472c1.599-4.598,4.178-9.236,7.474-12.764c3.782-4.032,8.703-4.803,10.136,2.473
			c1.427,7.35,2.061,14.86,3.064,22.426c8.443,0.632,17.467-5.66,20.468-14.701C433.689,423.727,427.568,410.514,418.036,404.606z
			 M312.017,427.082c-11.898-28.969-48.867-37.025-71.308-15.3c-5.59,5.423-10.597,11.944-14.156,18.852
			c-13.695,26.513-14.363,55.146-11.807,84.022c1.43,16.231,6.211,31.714,15.744,45.01c19.483,27.116,62.282,22.275,76.758-8.835
			c3.708-7.986,4.201-17.439,6.913-25.972c2.113-6.729-0.97-11.097-5.783-14.113c-4.607-2.884-9.941-5.043-15.247-6.275
			c-5.815-1.369-9.057,0.9-8.978,8.005c0.144,10.826-0.668,21.688-1.659,32.473c-1.049,11.833-6.891,20.146-13.412,20.328
			c-6.843,0.192-14.524-8.746-15.991-19.696c-1.439-10.733-2.074-21.594-3.081-32.382c0.16-0.018,0.299-0.039,0.455-0.049
			c0-6.458,0.32-12.941-0.091-19.376c-0.417-6.893,2.616-7.883,8.944-7.929c16.955-0.162,33.897-1.382,50.855-2.28
			c5.04-0.245,7.532-2.553,8.11-8.158C320.025,458.726,318.397,442.579,312.017,427.082z M284.272,471.521h-32.796
			c1.783-18.429,3.302-35.854,12.417-51.398c1.606-2.751,5.269-6.507,7.474-6.196c2.963,0.427,6.559,3.846,7.913,6.858
			C286.551,437.06,286.298,454.124,284.272,471.521z M-82.395,490.701c-0.728,4.552-1.375,9.169-2.173,13.781
			c-3.14,18.028-7.559,35.693-19.338,50.31c-10.346,12.854-23.238,12.55-31.203-1.681c-4.862-8.688-7.81-19.039-9.202-28.98
			c-2.734-19.407-4.689-39.048-5.253-58.647c-0.971-33.196-0.041-66.412,11.876-98.104c5.024-13.311,9.943-26.76,21.014-36.828
			c4.529-4.109,7.07-3.758,8.728,1.834c3.655,12.286,7.405,24.569,10.433,37.016c2.307,9.432,3.58,19.094,5.312,28.664
			c1.232-0.107,2.482-0.229,3.719-0.337c1.305-7.671,2.52-15.353,3.926-23.001c3.317-18.034,6.913-36.036,9.817-54.121
			c0.342-2.081-2.75-6.593-4.687-6.858c-20.308-2.854-40.634-1.819-59.693,5.885c-34.532,13.962-51.599,42.043-58.069,77.212
			c-5.111,27.739-2.624,55.583,2.435,83.081c4.141,22.535,9.586,44.757,21.84,64.685c9.45,15.354,21.437,27.53,40.067,30.193
			c43.314,6.228,67.094-22.789,72.471-58.172C-58.219,502.412-68.224,491.706-82.395,490.701z M197.016,434.641
			c-1.894-8.778-6.669-17.729-12.417-24.73c-13.149-16.023-34.125-13.556-44.547,4.264c-2.29,3.931-4.076,8.147-6.077,12.219
			c-1.413-3.666-1.642-7.02-1.37-10.337c2.037-24.485,4.108-48.955,6.355-73.419c0.567-6.115-1.407-9.784-7.822-9.961
			c-11.966-0.334-23.939-0.509-35.908-0.684c-8.078-0.121-10.136,3.401-8.762,11.531c2.578,15.268,4.407,30.728,5.478,46.187
			c1.573,22.494,2.873,45.039,3.07,67.587c0.268,29.878-0.139,59.818-1.284,89.679c-0.652,16.552,4.388,25.17,20.978,30.119
			c10.329,3.113,13.941,0.558,14.247-9.972c0.052-2.311,0.262-4.623,0.562-9.28c3.364,3.958,5.638,6.145,7.349,8.703
			c8.095,12.202,18.479,14.46,30.585,6.344c11.229-7.532,17.836-18.685,22.265-30.889
			C202.404,506.99,204.79,470.954,197.016,434.641z M161.259,542.144c-0.229,1.43-0.497,3.066-1.348,4.156
			c-3.098,3.971-6.447,7.742-9.709,11.601c-2.681-3.895-6.736-7.453-7.773-11.743c-4.199-17.345-8.922-34.785-10.544-52.438
			c-1.021-10.93,2.537-22.512,5.27-33.495c2.702-10.753,6.398-21.347,10.795-31.522c1.637-3.809,6.452-6.264,9.818-9.322
			c2.766,3.577,7.121,6.803,8.035,10.804c2.857,12.46,4.407,25.216,7.002,41.115C169.248,493.166,165.287,517.659,161.259,542.144z
			 M816.601,570.541c-5.979-44.724-12.077-89.444-16.753-134.295c-3.916-37.619-6.098-75.413-8.746-113.158
			c-0.481-6.874-3.692-10.769-10.01-10.841c-15.707-0.158-31.414,0.391-47.125,0.653c-7.267,0.12-9.662,4.475-10.999,11.056
			c-11.749,58.082-23.608,116.153-35.737,174.15c-5.418,26.004-7.875,53.027-24.025,75.688c-0.561,0.797-0.231,2.227-0.53,5.943
			c8.742,0,17.061,0.123,25.401-0.036c10.351-0.193,11.549-1.905,9.768-12.246c-3.669-21.222-0.766-41.985,4.548-63.865h62.882
			c-1.467,22.811-2.43,44.462-4.456,66.016c-0.6,6.227,1.004,9.475,6.579,9.575c14.535,0.279,29.119,0.032,43.664-0.372
			C816.088,578.667,817.342,576.13,816.601,570.541z M711.054,487.721c-5.971-0.064-4.918-4.334-3.985-8.25
			c7.847-32.473,15.525-64.992,23.527-97.434c3.615-14.685,7.869-29.207,11.834-43.807c0.915,0.017,1.83,0.017,2.75,0.033
			c6.558,49.151,13.101,98.277,19.927,149.527C745.43,487.797,728.24,487.936,711.054,487.721z M70.351,400.317
			c-11.545-1.107-23.218-1-34.833-1.107c-6.221-0.075-7.843,3.317-6.943,9.255c4.109,26.845,5.607,53.883-0.684,80.471
			c-4.089,17.271-10.438,34.023-16.377,50.803c-0.951,2.732-5.039,4.348-7.666,6.488c-1.691-2.857-3.686-5.607-4.986-8.639
			c-0.898-2.098-1.167-4.58-1.188-6.92c-0.348-36.313-0.652-72.628-0.882-108.92c-0.09-14.841,0.685-19.355-14.364-22.196
			c-6.949-1.305-14.438,0.144-21.667,0.406c-6.473,0.247-9.062,3.066-8.474,10.052c1.722,21.015,2.589,42.091,4.119,63.121
			c1.605,21.892,2.627,43.917,5.821,65.6c1.568,10.683,6.468,21.275,11.791,30.83c2.258,4.056,9.287,7.02,14.454,7.532
			c12.113,1.231,20.437-6.498,26.76-15.659c6.05-8.772,11.027-18.295,16.788-28.005c0,6.838,0.594,13.24-0.113,19.479
			c-2.604,22.673-5.236,45.36-8.865,67.871c-0.812,4.938-6.21,13.312-8.73,13.028c-8.179-0.863-7.789-9.396-8.918-15.909
			c-0.154-0.852-0.192-1.805-0.015-2.629c1.728-8.057,3.53-16.112,5.397-24.576c-9.347-4.387-19.125-2.82-28.365,1.306
			c-2.627,1.182-5.708,6.029-5.258,8.603c1.787,9.978,3.338,20.542,7.886,29.406c11.619,22.748,40.352,26.67,56.444,7.65
			c6.613-7.81,11.192-17.912,14.67-27.701c9.923-27.994,9.784-57.589,12.021-86.784c2.925-38.271,6.135-76.506,8.672-114.793
			C77.018,405.721,72.854,400.563,70.351,400.317z M961.873,314.755c2.098,11.917,5.652,22.654,5.574,33.335
			c-0.377,43.421-1.889,86.84-2.91,130.258c-0.193,8.71-0.022,17.435-0.022,26.138c-2.358-1.909-3.081-3.809-3.535-5.77
			c-14.195-61.069-36.337-119.445-60.196-177.212c-2.227-5.379-5.15-8.726-11.549-8.622c-8.79,0.158-17.613-0.882-26.389-0.473
			c-10.826,0.511-21.609,1.996-34.102,3.208c10.387,13.185,14.92,25.876,15.18,40.192c0.991,53.698,2.836,107.377,2.825,161.069
			c0,20.809,3.029,43.369-16.304,60.343h68.074c-3.439-11.704-8.9-22.082-9.142-32.59c-1.006-43.487-0.427-87.02-0.427-131.239
			c0.866,1.492,1.721,2.592,2.188,3.818c6.343,17.366,13.926,34.394,18.657,52.182c8.522,31.98,15.247,64.45,22.974,96.637
			c0.812,3.383,2.75,8.637,5.076,9.186c15.008,3.581,30.285,5.522,45.323,2.437c-1.535-6.882-4.126-12.803-3.971-18.635
			c1.215-46.029,2.63-92.052,4.688-138.067c1.038-23.409,2.681-46.87,5.69-70.104c1.59-12.144,6.748-23.819,10.423-36.084h-38.127
			V314.755z M636.36,543.028c0.588-43.458,0.271-86.93,1.958-130.331c1.287-32.661-3.12-66.161,12.207-99.744
			c-18.867,0-36.325,0.12-53.771-0.07c-6.66-0.072-9.673,2.715-11.49,9.203c-12.958,46.328-26.326,92.548-39.583,138.806
			c-0.706,2.467-1.719,4.842-3.345,9.379c-1.374-3.894-1.888-5.232-2.326-6.592c-14.984-47.511-29.885-95.055-45.094-142.513
			c-1.021-3.154-4.157-7.862-6.516-8.003c-13.948-0.757-27.948-0.366-42.948-0.366c2.333,7.313,5.27,12.44,5.414,17.661
			c1.307,48.691,2.783,97.396,2.884,146.1c0.097,33.806,3.879,68.108-10.614,102.784c13.15-0.786,24.438-1.448,33.494-1.994
			c-10.95-67.177-4.938-132.883-7.617-198.305c2.279,1.588,3.348,3.312,3.933,5.184c9.875,32.198,20.542,64.211,29.14,96.782
			c3.7,14.01,9.041,28.979,0.455,44.702c19.157,5.59,36.848,5.023,53.375-1.299c-0.756-9.276-3.521-17.79-1.701-25.194
			c11.795-48.127,24.582-96,37.19-143.938c1.033-3.968,3.15-7.638,4.778-11.443c1.834,3.456,1.846,6.366,1.834,9.273
			c-0.428,56.938-0.376,113.914-1.573,170.836c-0.37,17.98,2.28,37.597-13.695,53.444h63.92
			C635.761,567.177,636.205,555.085,636.36,543.028z"/>
		<path d="M445.447,312.8c15,0,28.996-0.382,42.938,0.372c2.37,0.126,5.51,4.839,6.525,7.999
			c15.2,47.446,30.109,94.991,45.094,142.507c0.434,1.365,0.958,2.708,2.326,6.602c1.627-4.531,2.629-6.911,3.345-9.383
			c13.257-46.254,26.62-92.478,39.583-138.812c1.819-6.487,4.836-9.279,11.492-9.203c17.449,0.201,34.911,0.064,53.753,0.064
			c-15.312,33.584-10.898,67.084-12.182,99.75c-1.696,43.396-1.369,86.873-1.962,130.324c-0.155,12.058-0.595,24.138,10.319,34.377
			c-22.544,0-43.243,0-63.931,0c15.976-15.846,13.338-35.474,13.707-53.448c1.197-56.928,1.144-113.892,1.558-170.842
			c0.025-2.902,0-5.812-1.821-9.273c-1.625,3.806-3.744,7.489-4.787,11.449c-12.608,47.921-25.374,95.812-37.19,143.93
			c-1.81,7.404,0.958,15.925,1.705,25.197c-16.525,6.328-34.2,6.889-53.375,1.313c8.582-15.737,3.241-30.701-0.459-44.713
			c-8.586-32.558-19.259-64.57-29.13-96.786c-0.576-1.868-1.663-3.58-3.942-5.179c2.68,65.433-3.313,131.139,7.635,198.321
			c-9.074,0.533-20.34,1.198-33.501,1.979c14.488-34.665,10.7-68.98,10.618-102.763c-0.121-48.716-1.588-97.419-2.903-146.115
			C450.717,325.252,447.771,320.114,445.447,312.8z"/>
		<path d="M983.176,577.64c-15.045,3.093-30.322,1.156-45.33-2.425c-2.326-0.549-4.257-5.793-5.076-9.186
			c-7.727-32.204-14.455-64.656-22.974-96.643c-4.731-17.788-12.314-34.81-18.666-52.17c-0.458-1.247-1.319-2.339-2.179-3.824
			c0,44.22-0.575,87.752,0.416,131.233c0.244,10.508,5.713,20.886,9.159,32.607c-20.992,0-43.771,0-68.093,0
			c19.341-16.979,16.315-39.561,16.315-60.354c0.007-53.691-1.834-107.383-2.828-161.069c-0.269-14.302-4.794-27.02-15.181-40.187
			c12.484-1.228,23.269-2.702,34.105-3.21c8.772-0.412,17.59,0.628,26.377,0.482c6.398-0.11,9.319,3.231,11.545,8.604
			c23.88,57.784,46.014,116.154,60.204,177.227c0.454,1.964,1.188,3.857,3.538,5.767c0-8.715-0.17-17.445,0.032-26.149
			c1.017-43.418,2.536-86.825,2.897-130.242c0.098-10.696-3.477-21.422-5.574-33.35c11.339,0,24.85,0,38.135,0
			c-3.659,12.278-8.833,23.956-10.411,36.095c-3.03,23.234-4.664,46.689-5.702,70.121c-2.055,45.992-3.469,92.021-4.682,138.05
			C979.043,564.854,981.634,570.77,983.176,577.64z"/>
		<path d="M32.008,533.43c-5.76,9.71-10.731,19.238-16.781,28.005C8.887,570.62,0.58,578.329-11.528,577.1
			c-5.161-0.524-12.196-3.482-14.454-7.527c-5.329-9.56-10.234-20.142-11.797-30.829c-3.183-21.684-4.21-43.704-5.81-65.605
			c-1.535-21.03-2.407-42.112-4.141-63.117c-0.571-6.993,2.017-9.815,8.485-10.056c7.233-0.268,14.717-1.712,21.671-0.396
			c15.039,2.841,14.278,7.335,14.37,22.18c0.224,36.313,0.524,72.629,0.872,108.933c0.021,2.327,0.289,4.825,1.192,6.91
			c1.3,3.04,3.29,5.778,4.981,8.646c2.637-2.145,6.713-3.771,7.676-6.498c5.933-16.779,12.282-33.532,16.365-50.799
			c6.286-26.581,4.803-53.624,0.701-80.469c-0.911-5.935,0.717-9.319,6.932-9.261c11.63,0.107,23.298,0,34.843,1.118
			c2.509,0.247,6.662,5.393,6.489,8.052c-2.541,38.281-5.751,76.531-8.682,114.793c-2.236,29.201-2.086,58.79-12.021,86.797
			c-3.472,9.788-8.045,19.889-14.653,27.7c-16.092,19.029-44.831,15.096-56.455-7.651c-4.532-8.863-6.084-19.431-7.882-29.417
			c-0.459-2.567,2.627-7.426,5.26-8.593c9.244-4.13,19.029-5.702,28.364-1.294c-1.861,8.457-3.654,16.504-5.388,24.555
			c-0.181,0.846-0.139,1.777,0.006,2.632c1.128,6.511,0.749,15.043,8.929,15.915c2.519,0.274,7.912-8.088,8.705-13.031
			c3.638-22.507,6.27-45.194,8.874-67.866C32.614,546.665,32.008,540.268,32.008,533.43z"/>
		<path d="M816.601,570.541c-5.979-44.724-12.077-89.444-16.753-134.295c-3.916-37.619-6.098-75.413-8.746-113.158
			c-0.481-6.874-3.692-10.769-10.01-10.841c-15.707-0.158-31.414,0.391-47.125,0.653c-7.267,0.12-9.662,4.475-10.999,11.056
			c-11.749,58.082-23.608,116.153-35.737,174.15c-5.418,26.004-7.875,53.027-24.025,75.688c-0.561,0.797-0.231,2.227-0.53,5.943
			c8.742,0,17.061,0.123,25.401-0.036c10.351-0.193,11.549-1.905,9.768-12.246c-3.669-21.222-0.766-41.985,4.548-63.865h62.882
			c-1.467,22.811-2.43,44.462-4.456,66.016c-0.6,6.227,1.004,9.475,6.579,9.575c14.535,0.279,29.119,0.032,43.664-0.372
			C816.088,578.667,817.342,576.13,816.601,570.541z M711.054,487.721c-5.971-0.064-4.918-4.334-3.985-8.25
			c7.847-32.473,15.525-64.992,23.527-97.434c3.615-14.685,7.869-29.207,11.834-43.807c0.915,0.017,1.83,0.017,2.75,0.033
			c6.558,49.151,13.101,98.277,19.927,149.527C745.43,487.797,728.24,487.936,711.054,487.721z"/>
		<path d="M197.016,434.641c-1.894-8.778-6.669-17.729-12.417-24.73c-13.149-16.023-34.125-13.556-44.547,4.264
			c-2.29,3.931-4.076,8.147-6.077,12.219c-1.413-3.666-1.642-7.02-1.37-10.337c2.037-24.485,4.108-48.955,6.355-73.419
			c0.567-6.115-1.407-9.784-7.822-9.961c-11.966-0.334-23.939-0.509-35.908-0.684c-8.078-0.121-10.136,3.401-8.762,11.531
			c2.578,15.268,4.407,30.728,5.478,46.187c1.573,22.494,2.873,45.039,3.07,67.587c0.268,29.878-0.139,59.818-1.284,89.679
			c-0.652,16.552,4.388,25.17,20.978,30.119c10.329,3.113,13.941,0.558,14.247-9.972c0.052-2.311,0.262-4.623,0.562-9.28
			c3.364,3.958,5.638,6.145,7.349,8.703c8.095,12.202,18.479,14.46,30.585,6.344c11.229-7.532,17.836-18.685,22.265-30.889
			C202.404,506.99,204.79,470.954,197.016,434.641z M161.259,542.144c-0.229,1.43-0.497,3.066-1.348,4.156
			c-3.098,3.971-6.447,7.742-9.709,11.601c-2.681-3.895-6.736-7.453-7.773-11.743c-4.199-17.345-8.922-34.785-10.544-52.438
			c-1.021-10.93,2.537-22.512,5.27-33.495c2.702-10.753,6.398-21.347,10.795-31.522c1.637-3.809,6.452-6.264,9.818-9.322
			c2.766,3.577,7.121,6.803,8.035,10.804c2.857,12.46,4.407,25.216,7.002,41.115C169.248,493.166,165.287,517.659,161.259,542.144z"
			/>
		<path d="M-92.196,398.065c-1.728-9.565-3-19.242-5.308-28.668c-3.038-12.446-6.788-24.729-10.437-37.015
			c-1.659-5.583-4.205-5.944-8.729-1.83c-11.076,10.063-15.99,23.513-21.002,36.828c-11.933,31.686-12.859,64.896-11.893,98.107
			c0.569,19.593,2.536,39.226,5.253,58.645c1.392,9.936,4.339,20.287,9.208,28.985c7.971,14.22,20.861,14.503,31.207,1.658
			c11.764-14.616,16.2-32.27,19.334-50.313c0.802-4.586,1.45-9.209,2.172-13.772c14.172,1.013,24.186,11.717,22.026,25.937
			c-5.367,35.383-29.146,64.39-72.461,58.184c-18.635-2.675-30.617-14.86-40.072-30.215c-12.248-19.906-17.7-42.146-21.846-64.685
			c-5.059-27.498-7.533-55.338-2.421-83.08c6.474-35.17,23.523-63.251,58.066-77.208c19.059-7.698,39.38-8.744,59.688-5.896
			c1.936,0.268,5.028,4.782,4.691,6.858c-2.899,18.101-6.5,36.084-9.822,54.119c-1.401,7.655-2.621,15.343-3.932,23.014
			C-89.725,397.845-90.961,397.954-92.196,398.065z"/>
		<path d="M312.017,427.082c-11.898-28.969-48.867-37.025-71.308-15.3c-5.59,5.423-10.597,11.944-14.156,18.852
			c-13.695,26.513-14.363,55.146-11.807,84.022c1.43,16.231,6.211,31.714,15.744,45.01c19.483,27.116,62.282,22.275,76.758-8.835
			c3.708-7.986,4.201-17.439,6.913-25.972c2.113-6.729-0.97-11.097-5.783-14.113c-4.607-2.884-9.941-5.043-15.247-6.275
			c-5.815-1.369-9.057,0.9-8.978,8.005c0.144,10.826-0.668,21.688-1.659,32.473c-1.049,11.833-6.891,20.146-13.412,20.328
			c-6.843,0.192-14.524-8.746-15.991-19.696c-1.439-10.733-2.074-21.594-3.081-32.382c0.16-0.018,0.299-0.039,0.455-0.049
			c0-6.458,0.32-12.941-0.091-19.376c-0.417-6.893,2.616-7.883,8.944-7.929c16.955-0.162,33.897-1.382,50.855-2.28
			c5.04-0.245,7.532-2.553,8.11-8.158C320.025,458.726,318.397,442.579,312.017,427.082z M284.272,471.521h-32.796
			c1.783-18.429,3.302-35.854,12.417-51.398c1.606-2.751,5.269-6.507,7.474-6.196c2.963,0.427,6.559,3.846,7.913,6.858
			C286.551,437.06,286.298,454.124,284.272,471.521z"/>
		<path d="M410.396,447.047c-1.012-7.568-1.653-15.081-3.087-22.426c-1.423-7.291-6.35-6.511-10.125-2.477
			c-3.307,3.52-5.879,8.17-7.479,12.774c-8.602,24.731-14.305,49.998-13.881,76.459c0.299,19.056-0.22,38.121-0.482,57.188
			c-0.113,7.518-3.681,10.491-11.155,9.651c-0.573-0.063-1.146-0.253-1.723-0.358c-22.175-4.248-22.502-4.232-23.539-27.204
			c-1.091-24.262-1.085-48.575-2.274-72.83c-1.108-22.802-2.879-45.571-4.959-68.296c-0.545-5.938,0.878-9.73,6.608-9.854
			c12.138-0.278,24.39-0.53,36.411,0.813c8.96,1.005,6.355,9.421,6.393,15.899c17.107-16.975,24.698-19.328,36.923-11.775
			c9.543,5.901,15.664,19.125,12.817,27.733C427.863,441.377,418.828,447.673,410.396,447.047z"/>
		<path d="M105.573,213.138c-41.723,35.525-139.532,36.105-172.166,1.49c3.942-1.731,7.416-3.561,11.091-4.81
			c4.708-1.605,9.496-3.429,14.379-3.972c13.599-1.517,17.103-11.259,19.035-22.341c4.521-25.939,5.704-26.959,31.062-32.409
			c14.85-3.195,27.669,2.706,40.62,8.014c2.077,0.851,3.547,4.448,4.291,7.066c2.375,8.427,4.644,16.925,6.237,25.525
			c1.408,7.564,5.169,11.322,12.899,12.818C83.576,206.563,93.863,209.964,105.573,213.138z"/>
		<path d="M-79.849,299.512c12.727-6.382,24.326-12.195,36.485-18.288c-11.443-13.11-22.628-25.933-33.815-38.751
			c0.38-0.941,0.766-1.88,1.139-2.827c8.709-1.303,17.408-2.613,26.417-3.973c4.397,43.98,39.818,63.301,67.46,90.297
			c16.248-15.156,32.138-29.703,47.705-44.59c12.449-11.922,17.59-27.287,19.682-45.492c7.462,1.008,15.299,1.402,22.773,3.277
			c6.928,1.73,3.675,5.708,0.686,9.006c-9.822,10.841-19.65,21.688-29.938,33.042c12.246,6.08,23.871,11.86,37.599,18.676
			c-9.63,5.421-17.108,9.771-24.71,13.898c-22.679,12.285-45.309,24.679-68.237,36.494c-3.189,1.645-8.705,1.719-11.833,0.061
			c-28.97-15.426-57.644-31.378-86.395-47.211C-76.034,302.457-77.094,301.51-79.849,299.512z"/>
		<path d="M-20.585,253.357c26.316,8.796,51.026,8.766,78.642-0.41c-3.312,8.673-4.446,16.911-8.96,22.317
			c-7.42,8.875-16.863,16.121-25.872,23.562c-2,1.654-6.87,2.745-8.468,1.528c-13.68-10.443-28.065-20.471-33.693-38.058
			C-19.701,259.902-19.878,257.318-20.585,253.357z"/>
		<path d="M53.21,240.863c-6.355,9.876-15.647,11.553-24.822,4.553C36.872,243.858,44.255,242.505,53.21,240.863z"/>
		<path d="M7.331,245.15c-7.275,7.428-18.018,5.807-23.854-3.707C-8.297,242.724-0.721,243.896,7.331,245.15z"/>
	</g>
</g>
</svg>
